<?xml version="1.0" encoding="utf-8"?>
<!-- Generator: Adobe Illustrator 19.2.1, SVG Export Plug-In . SVG Version: 6.00 Build 0)  -->
<svg version="1.1" id="Layer_0_x2020_Image" xmlns="http://www.w3.org/2000/svg" xmlns:xlink="http://www.w3.org/1999/xlink"
	 x="0px" y="0px" viewBox="0 0 212 168" style="enable-background:new 0 0 212 168;" xml:space="preserve">
<style type="text/css">
	.st0{fill:#C42626;}
	.st1{fill:#264FBF;}
	.st2{fill:url(#SVGID_1_);}
	.st3{fill:url(#SVGID_2_);}
	.st4{fill:url(#SVGID_3_);}
	.st5{fill:url(#SVGID_4_);}
	.st6{fill:url(#SVGID_5_);}
</style>
<g>
	<path class="st0" d="M199.5,108.3H1.2v5.7h28.9c3.2,9.4,15.5,39.9,42.4,49.7l3-8.7c0,0,72,17.4,100-41h24V108.3z M80.5,139.3
		c0,0,0.4-3.9,2.3-9.7c0,0-32.1-0.9-43.4-15.7l116.3,0.1C150.7,122.6,130.5,146.5,80.5,139.3z"/>
	<path class="st1" d="M179.8,54c-3.3-9.4-15.8-39.9-43.1-49.7l-3,8.7c0,0-73.1-17.4-101.6,41H12.5v5.7h198.3V54H179.8z M128.5,28.6
		c0,0-1,7-2.4,9.7c0,0,32.6,0.9,44,15.7H52.8C58,45.5,77.8,21.4,128.5,28.6z"/>
	<g>
		
			<linearGradient id="SVGID_1_" gradientUnits="userSpaceOnUse" x1="-55.7014" y1="-55.329" x2="236.9646" y2="-58.662" gradientTransform="matrix(1 0 0 1 0 140)">
			<stop  offset="0" style="stop-color:#FFFFFF"/>
			<stop  offset="2.644466e-02" style="stop-color:#D0D0D0"/>
			<stop  offset="5.541327e-02" style="stop-color:#A5A5A5"/>
			<stop  offset="8.752485e-02" style="stop-color:#7E7E7E"/>
			<stop  offset="0.1221" style="stop-color:#5B5B5B"/>
			<stop  offset="0.1599" style="stop-color:#3F3F3F"/>
			<stop  offset="0.2018" style="stop-color:#282828"/>
			<stop  offset="0.2498" style="stop-color:#161616"/>
			<stop  offset="0.3075" style="stop-color:#090909"/>
			<stop  offset="0.3848" style="stop-color:#020202"/>
			<stop  offset="0.5636" style="stop-color:#000000"/>
		</linearGradient>
		<path class="st2" d="M49.8,86.9c-0.3-0.9-0.8-1.8-1.4-2.4c-0.6-0.7-1.3-1.3-2.1-1.7c-0.6-0.3-1.2-0.6-1.9-0.7
			c0.9-0.4,1.8-0.9,2.5-1.4c1-0.7,1.8-1.6,2.5-2.5s1.2-2,1.6-3.1c0.4-1.1,0.6-2.4,0.6-3.7c0-1.5-0.3-2.8-0.9-3.9
			c-0.6-1.1-1.5-2-2.6-2.7s-2.5-1.2-4.2-1.6c-1.6-0.3-3.6-0.5-5.9-0.5H27.8c-0.8,0-1.6,0.2-2.2,0.7c-0.7,0.5-1.1,1.2-1.3,2.2
			l-7.4,36.2c-0.2,1-0.1,1.8,0.4,2.2c0.5,0.5,1.2,0.7,2.1,0.7h11.7c2.4,0,4.6-0.2,6.4-0.6c1.8-0.4,3.5-1,4.9-1.7s2.6-1.6,3.6-2.5
			c1-1,1.8-2,2.4-3.1c0.6-1.1,1.1-2.2,1.4-3.3c0.3-1.1,0.4-2.2,0.4-3.3C50.2,88.9,50.1,87.8,49.8,86.9z M38.3,79
			c-0.9,0.4-2.1,0.6-3.4,0.6h-4.5l2.1-10.2H37c1,0,1.8,0.1,2.5,0.2c0.6,0.2,1.2,0.4,1.6,0.7c0.4,0.3,0.7,0.7,0.9,1.1
			s0.3,0.9,0.3,1.5c0,0.7-0.1,1.5-0.4,2.3c-0.3,0.8-0.7,1.5-1.3,2.2C40,78,39.2,78.6,38.3,79z M32.5,97.6h-5.8L29,86.3h5.5
			c2.2,0,3.8,0.4,4.8,1.1s1.5,1.7,1.5,3c0,0.9-0.2,1.8-0.5,2.6c-0.3,0.8-0.8,1.6-1.5,2.3c-0.7,0.7-1.5,1.2-2.5,1.6
			C35.2,97.4,34,97.6,32.5,97.6z"/>
		
			<linearGradient id="SVGID_2_" gradientUnits="userSpaceOnUse" x1="-55.6967" y1="-54.876" x2="236.9711" y2="-58.209" gradientTransform="matrix(1 0 0 1 0 140)">
			<stop  offset="0" style="stop-color:#FFFFFF"/>
			<stop  offset="2.644466e-02" style="stop-color:#D0D0D0"/>
			<stop  offset="5.541327e-02" style="stop-color:#A5A5A5"/>
			<stop  offset="8.752485e-02" style="stop-color:#7E7E7E"/>
			<stop  offset="0.1221" style="stop-color:#5B5B5B"/>
			<stop  offset="0.1599" style="stop-color:#3F3F3F"/>
			<stop  offset="0.2018" style="stop-color:#282828"/>
			<stop  offset="0.2498" style="stop-color:#161616"/>
			<stop  offset="0.3075" style="stop-color:#090909"/>
			<stop  offset="0.3848" style="stop-color:#020202"/>
			<stop  offset="0.5636" style="stop-color:#000000"/>
		</linearGradient>
		<path class="st3" d="M86,71.8c0-1.6-0.3-3-0.9-4.1c-0.6-1.2-1.5-2.1-2.7-2.9s-2.6-1.3-4.2-1.7c-1.6-0.4-3.4-0.6-5.4-0.6H61.4
			c-0.8,0-1.6,0.2-2.2,0.7c-0.7,0.5-1.1,1.2-1.3,2.2l-7.7,37.7c-0.1,0.3-0.1,0.6,0.1,0.8c0.1,0.2,0.4,0.4,0.7,0.5s0.8,0.2,1.3,0.3
			c0.5,0.1,1.2,0.1,2.1,0.1c0.8,0,1.5,0,2.1-0.1s1.1-0.1,1.4-0.2c0.4-0.1,0.7-0.3,0.9-0.5c0.2-0.2,0.3-0.4,0.4-0.7l3.2-15.6h2.5
			c0.9,0,1.6,0.1,2.3,0.4c0.6,0.3,1.2,0.6,1.6,1.1s0.8,1.2,1.1,2c0.3,0.8,0.5,1.7,0.7,2.8l1.6,9.2c0,0.3,0.1,0.5,0.2,0.7
			s0.4,0.4,0.7,0.6c0.3,0.1,0.8,0.2,1.4,0.3c0.6,0.1,1.3,0.1,2.2,0.1c1,0,1.8,0,2.5-0.1c0.7,0,1.2-0.1,1.6-0.2s0.7-0.3,0.9-0.4
			c0.2-0.2,0.3-0.4,0.3-0.7c0-0.3,0-0.6-0.1-1s-0.1-0.8-0.2-1.3L80,92.8c-0.5-2.1-1.1-3.8-1.8-5c-0.6-1-1.3-1.8-2.2-2.2
			c1.7-0.6,3.1-1.3,4.3-2.2c1.3-1,2.4-2.1,3.3-3.3c0.8-1.2,1.5-2.5,1.9-3.9C85.8,74.6,86,73.2,86,71.8z M76.3,73.4
			c0,0.9-0.2,1.8-0.5,2.6c-0.3,0.8-0.8,1.6-1.5,2.3c-0.7,0.7-1.6,1.3-2.7,1.7c-1.1,0.4-2.5,0.7-4.1,0.7h-3.8L66,69.4h4.7
			c1,0,1.9,0.1,2.6,0.3c0.7,0.2,1.3,0.5,1.7,0.8c0.4,0.3,0.7,0.8,0.9,1.2C76.2,72.3,76.3,72.9,76.3,73.4z"/>
		
			<linearGradient id="SVGID_3_" gradientUnits="userSpaceOnUse" x1="-55.6873" y1="-54.1049" x2="236.9776" y2="-57.438" gradientTransform="matrix(1 0 0 1 0 140)">
			<stop  offset="0" style="stop-color:#FFFFFF"/>
			<stop  offset="2.644466e-02" style="stop-color:#D0D0D0"/>
			<stop  offset="5.541327e-02" style="stop-color:#A5A5A5"/>
			<stop  offset="8.752485e-02" style="stop-color:#7E7E7E"/>
			<stop  offset="0.1221" style="stop-color:#5B5B5B"/>
			<stop  offset="0.1599" style="stop-color:#3F3F3F"/>
			<stop  offset="0.2018" style="stop-color:#282828"/>
			<stop  offset="0.2498" style="stop-color:#161616"/>
			<stop  offset="0.3075" style="stop-color:#090909"/>
			<stop  offset="0.3848" style="stop-color:#020202"/>
			<stop  offset="0.5636" style="stop-color:#000000"/>
		</linearGradient>
		<path class="st4" d="M125.4,63.3c-0.1-0.2-0.4-0.4-0.7-0.5s-0.8-0.2-1.3-0.3c-0.5-0.1-1.2-0.1-2.1-0.1c-0.8,0-1.5,0-2.1,0.1
			s-1.1,0.2-1.4,0.3c-0.4,0.1-0.7,0.3-0.9,0.5s-0.3,0.4-0.4,0.7l-5.1,24.8c-0.3,1.4-0.8,2.7-1.4,3.9c-0.6,1.1-1.4,2.1-2.3,2.9
			s-1.9,1.4-3.1,1.8s-2.4,0.6-3.8,0.6c-1.3,0-2.5-0.2-3.4-0.5c-0.9-0.4-1.7-0.9-2.2-1.6s-0.9-1.7-1-2.8c-0.1-1.2-0.1-2.6,0.3-4.2
			l5-24.6c0.1-0.3,0-0.5-0.1-0.8c-0.1-0.2-0.4-0.4-0.7-0.5c-0.3-0.1-0.8-0.2-1.3-0.3c-0.6-0.1-1.3-0.1-2.1-0.1c-0.9,0-1.6,0-2.1,0.1
			c-0.6,0.1-1,0.2-1.4,0.3c-0.4,0.1-0.7,0.3-0.9,0.5c-0.2,0.2-0.3,0.4-0.4,0.7l-5,24.6c-0.6,2.7-0.7,5.2-0.3,7.3
			c0.4,2.1,1.2,3.9,2.4,5.3c1.2,1.4,2.9,2.5,5,3.2s4.6,1.1,7.5,1.1c2.7,0,5.2-0.3,7.5-1s4.3-1.7,6-3.1s3.2-3.1,4.4-5.1s2-4.4,2.6-7
			l5.1-25C125.6,63.7,125.6,63.5,125.4,63.3z"/>
		
			<linearGradient id="SVGID_4_" gradientUnits="userSpaceOnUse" x1="-55.6931" y1="-54.1446" x2="236.9811" y2="-57.4777" gradientTransform="matrix(1 0 0 1 0 140)">
			<stop  offset="0" style="stop-color:#FFFFFF"/>
			<stop  offset="2.644466e-02" style="stop-color:#D0D0D0"/>
			<stop  offset="5.541327e-02" style="stop-color:#A5A5A5"/>
			<stop  offset="8.752485e-02" style="stop-color:#7E7E7E"/>
			<stop  offset="0.1221" style="stop-color:#5B5B5B"/>
			<stop  offset="0.1599" style="stop-color:#3F3F3F"/>
			<stop  offset="0.2018" style="stop-color:#282828"/>
			<stop  offset="0.2498" style="stop-color:#161616"/>
			<stop  offset="0.3075" style="stop-color:#090909"/>
			<stop  offset="0.3848" style="stop-color:#020202"/>
			<stop  offset="0.5636" style="stop-color:#000000"/>
		</linearGradient>
		<path class="st5" d="M164,63.2c-0.1-0.2-0.3-0.4-0.7-0.5c-0.3-0.1-0.7-0.2-1.2-0.2c-0.5-0.1-1.2-0.1-1.9-0.1c-0.8,0-1.4,0-1.9,0.1
			s-0.9,0.1-1.3,0.2c-0.4,0.1-0.6,0.3-0.8,0.5s-0.3,0.4-0.4,0.7l-4,19.6c-0.3,1.5-0.6,3.1-0.9,4.8c-0.2,1.3-0.5,2.6-0.7,3.8
			c-0.3-0.9-0.5-1.8-0.8-2.6c-0.3-1.2-0.7-2.4-1.1-3.6L142,67.2c-0.2-0.8-0.5-1.5-0.8-2.1s-0.6-1.1-1-1.4c-0.4-0.4-0.9-0.7-1.4-0.8
			c-0.5-0.2-1.2-0.3-1.9-0.3h-4.5c-0.9,0-1.8,0.3-2.5,0.8s-1.2,1.4-1.4,2.4l-7.6,37.3c-0.1,0.3-0.1,0.5,0,0.8
			c0.1,0.2,0.3,0.4,0.6,0.5s0.7,0.2,1.2,0.3c0.5,0.1,1.1,0.1,1.9,0.1c0.8,0,1.4,0,1.9-0.1s1-0.2,1.3-0.3c0.4-0.1,0.6-0.3,0.8-0.5
			s0.3-0.4,0.4-0.7l4.3-21.2c0.3-1.6,0.7-3.3,1-4.9c0.2-1.3,0.4-2.6,0.6-3.9c0.3,1.1,0.6,2.2,0.9,3.3c0.4,1.5,0.9,2.9,1.3,4.3
			l6.2,18.5c0.3,1,0.6,1.9,0.9,2.6c0.3,0.7,0.6,1.2,1,1.6s0.9,0.7,1.4,0.9c0.5,0.2,1.2,0.2,2,0.2h3.7c0.5,0,0.9-0.1,1.3-0.2
			c0.4-0.1,0.8-0.3,1.2-0.6c0.4-0.3,0.7-0.6,0.9-1c0.3-0.4,0.5-0.9,0.5-1.4l7.7-37.4C164.2,63.7,164.2,63.5,164,63.2z"/>
		
			<linearGradient id="SVGID_5_" gradientUnits="userSpaceOnUse" x1="-55.6806" y1="-53.7488" x2="236.9816" y2="-57.0819" gradientTransform="matrix(1 0 0 1 0 140)">
			<stop  offset="0" style="stop-color:#FFFFFF"/>
			<stop  offset="2.644466e-02" style="stop-color:#D0D0D0"/>
			<stop  offset="5.541327e-02" style="stop-color:#A5A5A5"/>
			<stop  offset="8.752485e-02" style="stop-color:#7E7E7E"/>
			<stop  offset="0.1221" style="stop-color:#5B5B5B"/>
			<stop  offset="0.1599" style="stop-color:#3F3F3F"/>
			<stop  offset="0.2018" style="stop-color:#282828"/>
			<stop  offset="0.2498" style="stop-color:#161616"/>
			<stop  offset="0.3075" style="stop-color:#090909"/>
			<stop  offset="0.3848" style="stop-color:#020202"/>
			<stop  offset="0.5636" style="stop-color:#000000"/>
		</linearGradient>
		<path class="st6" d="M201.1,70.1c-0.7-1.9-1.8-3.4-3.2-4.7c-1.4-1.2-3.1-2.1-5.2-2.7c-2-0.6-4.4-0.9-7.1-0.9
			c-3.1,0-5.9,0.4-8.3,1.3c-2.4,0.9-4.6,2-6.4,3.5c-1.8,1.5-3.4,3.2-4.7,5.1s-2.4,3.9-3.2,6.1c-0.8,2.1-1.4,4.3-1.7,6.5
			c-0.4,2.2-0.5,4.3-0.5,6.3c0,2.5,0.4,4.7,1.1,6.5c0.7,1.8,1.8,3.4,3.2,4.6s3.2,2.1,5.2,2.7s4.4,0.9,7.1,0.9c3.1,0,6-0.4,8.4-1.3
			c2.5-0.9,4.6-2.1,6.5-3.6c1.8-1.5,3.4-3.2,4.7-5.1s2.3-4,3.1-6.1s1.3-4.3,1.7-6.4c0.3-2.1,0.5-4.2,0.5-6.1
			C202.2,74.2,201.9,72,201.1,70.1z M178.5,97.8c-1.5,0-2.8-0.2-3.8-0.6s-1.9-0.9-2.5-1.6s-1.1-1.5-1.4-2.5c-0.3-1-0.4-2.2-0.4-3.5
			c0-1.1,0.1-2.3,0.3-3.8c0.2-1.4,0.5-2.9,0.9-4.4s1-3,1.7-4.5s1.6-2.8,2.6-3.9s2.3-2.1,3.7-2.8c1.4-0.7,3-1,4.9-1
			c1.5,0,2.8,0.2,3.8,0.6s1.8,0.9,2.5,1.6c0.6,0.7,1.1,1.6,1.4,2.6c0.3,1,0.4,2.2,0.4,3.5c0,1.1-0.1,2.4-0.3,3.8s-0.5,2.9-0.9,4.4
			s-1,3-1.7,4.4s-1.6,2.7-2.6,3.9c-1,1.1-2.3,2-3.7,2.7C182,97.5,180.4,97.8,178.5,97.8z"/>
	</g>
</g>
</svg>
